<svg viewBox="0 0 365 99" fill="none" xmlns="http://www.w3.org/2000/svg" class="svgLogo">
  <g clip-path="url(#clip0_3_104)">
    <path fill-rule="evenodd" clip-rule="evenodd"
      d="M97.0313 58.9723L52.4412 98.42L75.7193 58.051L56.6623 25.0656L84.9728 0L97.045 58.9723H97.0313ZM44.5901 98.42L0 58.9723L12.0172 0L40.314 25.0656L21.257 58.051L44.5901 98.42V98.42ZM48.5225 24.7219L52.3862 31.363L68.3908 59.0823L48.5775 93.3876L28.7093 59.0823L48.5225 24.7081V24.7219Z"
      fill="url(#paint0_linear_3_104)"></path>
    <path fill-rule="evenodd" clip-rule="evenodd"
      d="M158.492 11.316L153.927 41.2215L148.427 11.316H140.384L134.747 41.2215L130.319 11.316H120.791L129.247 58.931H138.899L144.399 30.8955L149.899 58.931H159.551L167.993 11.316H158.465H158.492ZM181.564 43.1052H194.035V35.3229H181.564V28.4893H196.317V20.8445H172.311V58.931H196.317V51.2862H181.564V43.1052V43.1052ZM201.721 58.7935V20.8445H214.591C219.018 20.8445 222.373 21.7794 224.779 23.5257C227.199 25.2719 228.272 27.953 228.272 31.308C228.272 33.1917 227.873 34.9241 226.924 36.4091C226.113 37.8803 224.779 38.9528 223.171 39.6265C224.917 40.1627 226.388 41.0977 227.323 42.5827C228.258 44.0539 228.794 45.8001 228.794 47.945C228.794 51.6987 227.722 54.5174 225.439 56.2636C223.294 58.0098 219.939 58.8073 215.512 58.8073H201.694L201.721 58.7935ZM210.975 36.6703H215.402C217.822 36.6703 219.156 35.3229 219.156 32.7792C219.156 31.308 218.881 30.2355 218.221 29.5617C217.547 28.888 216.612 28.6268 215.402 28.6268H210.975V36.6703V36.6703ZM210.975 43.1052V51.2862H215.663C217.011 51.2862 217.946 50.8875 218.619 50.2137C219.293 49.54 219.692 48.605 219.692 47.2575C219.692 44.4389 218.619 43.1052 216.337 42.9677H210.975V43.1052Z"
      fill="white"></path>
    <path fill-rule="evenodd" clip-rule="evenodd"
      d="M282.844 87.709V84.2304C282.927 84.0241 283.174 83.7354 283.573 83.3366C283.972 82.9379 284.467 82.4842 285.044 81.9754C285.622 81.4667 286.227 80.958 286.859 80.4355C287.505 79.8992 288.083 79.418 288.633 78.9643C289.279 78.428 289.898 77.8918 290.503 77.3143C291.108 76.7368 291.603 76.1318 292.001 75.4856C292.4 74.8394 292.606 74.1519 292.606 73.4369C292.606 72.5432 292.386 71.8282 291.96 71.2782C291.534 70.742 290.874 70.467 289.939 70.467C289.196 70.467 288.605 70.632 288.165 70.962C287.739 71.2782 287.436 71.7319 287.244 72.3232C287.065 72.9007 286.969 73.5744 286.969 74.3581H282.72C282.72 72.8732 282.995 71.5944 283.559 70.522C284.123 69.4495 284.948 68.6108 286.02 68.047C287.106 67.4558 288.426 67.1671 289.994 67.1671C291.561 67.1671 292.771 67.442 293.789 68.0058C294.806 68.5695 295.576 69.312 296.099 70.2607C296.607 71.2095 296.869 72.2819 296.869 73.4781C296.869 74.2756 296.717 75.0319 296.401 75.7331C296.099 76.4343 295.7 77.0668 295.205 77.6718C294.724 78.263 294.201 78.813 293.638 79.308C293.074 79.7892 292.551 80.2292 292.056 80.628C291.218 81.2879 290.503 81.8654 289.884 82.3742C289.279 82.8829 288.784 83.2954 288.413 83.6529C288.055 83.9966 287.835 84.2716 287.753 84.4504H296.717V87.6953H282.83L282.844 87.709ZM311.815 88.039C310.522 88.039 309.436 87.764 308.528 87.2003C307.635 86.6366 306.906 85.8803 306.328 84.9316C305.765 83.9691 305.366 82.8554 305.105 81.6042C304.844 80.353 304.72 79.033 304.72 77.658C304.72 76.2831 304.844 74.9631 305.105 73.7119C305.366 72.4469 305.765 71.3332 306.328 70.357C306.892 69.3807 307.621 68.6108 308.528 68.0608C309.436 67.497 310.536 67.2083 311.815 67.2083C313.093 67.2083 314.193 67.497 315.087 68.0608C315.995 68.6245 316.723 69.3807 317.273 70.357C317.837 71.3332 318.249 72.4607 318.511 73.7119C318.772 74.9631 318.896 76.2831 318.896 77.658C318.896 79.033 318.772 80.353 318.511 81.6042C318.249 82.8554 317.837 83.9691 317.273 84.9316C316.709 85.8941 315.981 86.6503 315.087 87.2003C314.193 87.764 313.093 88.039 311.815 88.039ZM311.815 84.7391C312.433 84.7391 312.942 84.5054 313.355 84.0379C313.781 83.5566 314.083 82.8004 314.303 81.7692C314.51 80.7242 314.62 79.363 314.62 77.658C314.62 75.9531 314.51 74.5781 314.303 73.5469C314.097 72.5019 313.781 71.7457 313.355 71.2782C312.942 70.797 312.433 70.5632 311.815 70.5632C311.196 70.5632 310.701 70.797 310.275 71.2782C309.848 71.7594 309.546 72.5157 309.326 73.5469C309.12 74.5781 309.01 75.9531 309.01 77.658C309.01 79.363 309.12 80.738 309.326 81.7829C309.532 82.8142 309.848 83.5704 310.275 84.0379C310.701 84.5054 311.21 84.7391 311.815 84.7391ZM326.54 87.709V84.2304C326.623 84.0241 326.87 83.7354 327.269 83.3366C327.668 82.9379 328.163 82.4842 328.74 81.9754C329.318 81.4667 329.923 80.958 330.555 80.4355L331.312 79.8167L331.889 79.3355L332.329 78.9643C332.975 78.428 333.594 77.8918 334.199 77.3143C334.804 76.7368 335.299 76.1318 335.698 75.4856C336.096 74.8394 336.303 74.1519 336.303 73.4369C336.303 72.5432 336.083 71.8282 335.656 71.2782C335.23 70.742 334.57 70.467 333.635 70.467C332.893 70.467 332.302 70.632 331.862 70.962C331.435 71.2782 331.133 71.7319 330.94 72.3232C330.762 72.9007 330.665 73.5744 330.665 74.3581H326.417C326.417 72.8732 326.692 71.5944 327.255 70.522C327.819 69.4495 328.644 68.6108 329.717 68.047C330.803 67.4558 332.123 67.1671 333.69 67.1671C335.258 67.1671 336.468 67.442 337.485 68.0058C338.503 68.5695 339.273 69.312 339.795 70.2607C340.304 71.2095 340.565 72.2819 340.565 73.4781C340.565 74.2756 340.414 75.0319 340.098 75.7331C339.795 76.4343 339.396 77.0668 338.901 77.6718C338.42 78.263 337.898 78.813 337.334 79.308C336.77 79.7892 336.248 80.2292 335.753 80.628C334.914 81.2879 334.199 81.8654 333.58 82.3742C332.975 82.8829 332.48 83.2954 332.109 83.6529C331.752 83.9966 331.532 84.2716 331.449 84.4504H340.414V87.6953H326.527L326.54 87.709ZM348.664 87.709V84.2304C348.746 84.0241 348.994 83.7354 349.392 83.3366C349.791 82.9379 350.286 82.4842 350.864 81.9754C351.441 81.4667 352.046 80.958 352.679 80.4355C353.325 79.8992 353.902 79.418 354.452 78.9643C355.099 78.428 355.717 77.8918 356.322 77.3143C356.927 76.7368 357.422 76.1318 357.821 75.4856C358.22 74.8394 358.426 74.1519 358.426 73.4369C358.426 72.5432 358.206 71.8282 357.78 71.2782C357.353 70.742 356.693 70.467 355.758 70.467C355.016 70.467 354.425 70.632 353.985 70.962C353.559 71.2782 353.256 71.7319 353.064 72.3232C352.885 72.9007 352.789 73.5744 352.789 74.3581H348.54C348.54 72.8732 348.815 71.5944 349.379 70.522C349.942 69.4495 350.767 68.6108 351.84 68.047C352.926 67.4558 354.246 67.1671 355.813 67.1671C357.381 67.1671 358.591 67.442 359.608 68.0058C360.626 68.5695 361.396 69.312 361.905 70.2607C362.413 71.2095 362.675 72.2819 362.675 73.4781C362.675 74.2756 362.523 75.0319 362.207 75.7331C361.905 76.4343 361.506 77.0668 361.011 77.6718C360.53 78.263 360.007 78.813 359.443 79.308C358.88 79.7892 358.357 80.2292 357.862 80.628C357.037 81.2879 356.308 81.8654 355.69 82.3742C355.071 82.8829 354.59 83.2954 354.219 83.6529C353.861 83.9966 353.641 84.2716 353.559 84.4504H362.523V87.6953H348.636L348.664 87.709Z"
      fill="url(#paint1_linear_3_104)"></path>
    <path fill-rule="evenodd" clip-rule="evenodd"
      d="M128.215 67.497V87.709H138.06V86.2103H129.92V67.4833H128.215V67.497ZM161.572 67.4283L155.825 87.709H157.598L159.152 82.0717H166.563L168.117 87.709H169.891L164.185 67.4283H161.572ZM166.164 80.5867L162.878 68.6382L159.578 80.5867H166.178H166.164ZM192.234 68.9957H197.651V67.497H185.139V68.9957H190.556V87.7228H192.248V68.9957H192.234ZM218.647 67.4283L212.9 87.709H214.673L216.227 82.0717H223.638L225.192 87.709H226.965L221.259 67.4283H218.647V67.4283ZM223.239 80.5867L219.953 68.6382L216.653 80.5867H223.239ZM262.453 67.497H259.552L254.025 86.3203L248.511 67.497H245.61V87.709H247.232V69.0507L252.815 87.709H255.276L260.845 69.0645V87.709H262.467V67.497H262.453Z"
      fill="white"></path>
    <path fill-rule="evenodd" clip-rule="evenodd"
      d="M261.89 55.3148C264.708 52.4962 266.179 48.3438 266.454 42.9814V42.7064H256.665C256.527 45.9238 255.991 48.2063 255.056 49.4162C254.121 50.6262 252.375 51.2999 249.831 51.2999C247.15 51.2999 245.404 50.365 244.331 48.6188C243.259 46.7351 242.723 43.5176 242.723 38.829V29.8367C242.86 25.6843 243.396 22.7282 244.469 20.982C245.541 19.2358 247.425 18.3008 249.969 18.3008C252.512 18.3008 254.259 18.837 255.193 20.1845C256.266 21.5319 256.665 23.8006 256.802 27.1556H266.454C266.056 21.7932 264.571 17.627 261.89 14.6846C259.208 11.8659 255.317 10.3947 250.092 10.3947C244.868 10.3947 240.701 12.2784 237.759 15.7571C234.803 19.3733 233.332 24.3369 233.332 30.9092V38.9528C233.332 45.5251 234.803 50.6262 237.621 54.1049C240.44 57.721 244.593 59.4672 249.955 59.4672C255.317 59.4672 259.071 58.1198 261.89 55.3148V55.3148ZM301.324 40.5615C301.324 44.3151 300.65 47.5325 299.44 50.3512C298.23 53.1699 296.36 55.4523 294.078 56.9235C291.795 58.5323 289.114 59.206 286.171 59.206C283.229 59.206 280.534 58.3948 278.265 56.9235C275.983 55.4523 274.113 53.1699 272.766 50.3512C271.418 47.5325 270.882 44.1776 270.882 40.424V38.9528C270.882 35.1991 271.556 31.8442 272.766 29.0255C273.976 26.2068 275.845 23.9244 278.128 22.4532C280.41 20.8445 283.092 20.1707 286.034 20.1707C290.324 20.1707 293.94 21.7794 296.759 24.8594C299.577 28.0768 301.049 32.2292 301.324 37.6053V40.5615ZM292.07 39.0902C292.07 35.4741 291.534 32.7929 290.461 30.7717C289.389 28.888 287.918 27.8155 286.034 27.8155C284.027 27.8155 282.542 28.7505 281.469 30.7717C280.397 32.6554 279.998 35.4603 279.998 39.0902V40.5615C279.998 44.1776 280.534 46.9963 281.607 48.88C282.679 50.7637 284.15 51.8362 286.034 51.8362C287.918 51.8362 289.389 50.9012 290.461 48.88C291.534 46.8725 292.07 44.1914 292.07 40.699V39.0902V39.0902ZM326.403 58.9447H335.656V20.8445H326.403V44.4526L315.678 20.8445H306.425V58.931H315.678V35.3228L326.403 58.931V58.9447ZM363.554 44.0539H350.946V58.8072H341.693V20.8445H364.888V28.4893H350.946V36.3953H363.554V44.0401V44.0539Z"
      fill="white"></path>
  </g>
  <defs>
    <linearGradient id="paint0_linear_3_104" x1="48.5225" y1="0" x2="48.5225" y2="98.42" gradientUnits="userSpaceOnUse">
      <stop stop-color="#FF8A00"></stop>
      <stop offset="1" stop-color="#E64EFF"></stop>
    </linearGradient>
    <linearGradient id="paint1_linear_3_104" x1="322.691" y1="88.039" x2="322.691" y2="67.1946"
      gradientUnits="userSpaceOnUse">
      <stop stop-color="#FF8A00"></stop>
      <stop offset="1" stop-color="#E64EFF"></stop>
    </linearGradient>
    <clipPath id="clip0_3_104">
      <rect width="364.888" height="98.42" fill="white"></rect>
    </clipPath>
  </defs>
</svg>
